# Made in Blockbench 4.12.6
mtllib bush.mtl

o sphere
v 0 0.125 0
v 0.057621217921358936 1.5226118322422726 -0.09159558869101178
v 0.1544593642004911 1.2986359120657514 0.4412594836944507
v 0.22767760486820776 0.8125000000000009 0.43922809178601735
v 0.14644660940672627 0.32636408793424854 0.22855339059327404
v 0.40330271837700105 1.3686941748994816 0.14873791438187528
v 0.528302718377001 0.7424417371662709 0.44273110027053886
v 0.35355339059327384 0.32636408793424854 0.1464466094067263
v 0.40330271837700105 1.3686941748994816 -0.13721256565820295
v 0.528302718377001 0.7424417371662709 -0.14175644899421347
v 0.35355339059327384 0.32636408793424854 -0.14644660940672624
v 0.1464466094067263 1.2986359120657516 -0.16605339059327373
v 0.20710678118654757 0.8125 -0.6874999999999996
v -0.1035533905932737 0.32636408793424854 -0.16605339059327395
v -0.1464466094067262 1.2986359120657516 -0.16605339059327373
v -0.2071067811865475 0.8125 -0.375
v -0.1464466094067262 0.32636408793424854 -0.16605339059327395
v -0.38506698755829794 1.3498299959446154 -0.13334594287740179
v -0.5624999999999998 0.8125 -0.3946067811865479
v -0.35355339059327373 0.32636408793424854 -0.1464466094067265
v -0.25466101154960874 1.3498299959446154 0.22494153156841357
v -0.5625 0.8125 -0.04289321881345237
v -0.3535533905932738 0.32636408793424854 0.14644660940672635
v -0.09256427108337562 1.2986359120657514 0.28388807193854215
v -0.28957269798532337 0.8125000000000009 0.48023113376753673
v -0.1464466094067265 0.32636408793424854 0.22855339059327373
vt 0.47262650158348496 0.4539789195953483
vt 0.559396814083485 0.4986539195953482
vt 0.505307751583485 0.5968054820953482
vt 0.290229259329339 0.8101018654046189
vt 0.308526134329339 0.6885659279046189
vt 0.38368707182933903 0.6710518654046189
vt 0.351477696829339 0.827162802904619
vt 0.308526134329339 0.6885659279046189
vt 0.2859478883941447 0.5564775324665046
vt 0.3408107470053705 0.546875
vt 0.37636044478637504 0.6727591219691696
vt 0.5586686392988227 0.8412629486661334
vt 0.5053609375 0.85740081759897
vt 0.4687496069197007 0.78125
vt 0.559396814083485 0.4986539195953482
vt 0.59375 0.5613461940287691
vt 0.5053082932483459 0.5968044991747725
vt 0.07877997402595857 0.9999988771166634
vt 0.005281536525958558 0.8403473146166633
vt 0.15140341152595857 0.8403473146166633
vt 0.15026747402595855 0.9999988771166634
vt 0.005281536525958558 0.8403473146166633
vt 0.07935341152595857 0.7275254396166634
vt 0.15257528652595856 0.7275254396166634
vt 0.15140341152595857 0.8403473146166633
vt 0.6828851133418502 0.567684738844825
vt 0.6139898866581498 0.5924817289588924
vt 0.6139898866581498 0.484375
vt 0.5185883622286446 0.6317672123250844
vt 0.5828142546015601 0.6128674281679087
vt 0.6050207077793501 0.6718742180501251
vt 0.15026746603652663 1
vt 0.15140341152595857 0.8403473146166633
vt 0.30721846347404147 0.8733787304598819
vt 0.18863330652555937 0.9956145656376296
vt 0.5463188336847387 0.451054239318605
vt 0.53125 0.33923727204691256
vt 0.625 0.28125
vt 0.625 0.4232870938790204
vt 0.11664971671801318 0.5188573720488878
vt 0.002310273599956489 0.5157651076657572
vt 0.09076052780190866 0.45360705343361085
vt 0.5828142546015601 0.6128674281679087
vt 0.6560361296015602 0.6128674281679087
vt 0.6050205046015602 0.6718736781679088
vt 0.5719161771105099 0.765625
vt 0.3930455569070437 0.765625
vt 0.45876317427311086 0.6537851642110929
vt 0.578125 0.7014739763813918
vt 0.038984091718013175 0.6970839345488877
vt 0.11664971671801318 0.5188573720488878
vt 0.12737159171801316 0.5188573720488878
vt 0.14253721671801317 0.6399401845488878
vt 0.12737159171801316 0.5188573720488878
vt 0.11664971671801318 0.5188573720488878
vt 0.09076065421801317 0.4536073720488878
vt 0.6560361296015602 0.6128674281679087
vt 0.7157866377713553 0.6276761177164996
vt 0.6050193617719399 0.671875
vt 0.4296751853950682 0.4375
vt 0.40625 0.3064251731076072
vt 0.484375 0.27905975346911793
vt 0.484375 0.4347783035784242
vt 0.14391937519178777 0.6509753799546384
vt 0.12737159171801316 0.5188573720488878
vt 0.17931922996410554 0.5163562839480247
vt 0.2320647264000435 0.652072058989043
vt 0.17931922996410554 0.5163562839480247
vt 0.12737159171801316 0.5188573720488878
vt 0.09163319333713298 0.453125
vt 0.39438798552132615 0.640625
vt 0.397711013252973 0.545362628300612
vt 0.5053065114714861 0.596804233789914
vt 0.22225589868798962 0.5171146909876287
vt 0.15694027368798963 0.3756490659876288
vt 0.24486839868798962 0.3756490659876288
vt 0.31182777368798964 0.5273381284876287
vt 0.54955625 1
vt 0.611596875 0.875
vt 0.68481875 0.875
vt 0.637484375 1
vt 0.6556158644794462 0.78125
vt 0.6308188743653788 0.8501452266837005
vt 0.5475091355205538 0.78125
vt 0.397711013252973 0.545362628300612
vt 0.4273258745758559 0.511507390738184
vt 0.5053070500983735 0.596804491308419
vt 0.31298471543025735 0.5299590521185872
vt 0.24486839868798962 0.3756490659876288
vt 0.38993472631201037 0.402392986265127
vt 0.345092136887757 0.53125
vt 0.109375 0.4375
vt 0 0.3513836447435712
vt 0.009462229445779319 0.2964964140001546
vt 0.109375 0.32422682855314366
vt 0.4321390625 0.85740081759897
vt 0.37883136070117723 0.8412629486661334
vt 0.4687503930802993 0.78125
vt 0.4273258745758559 0.511507390738184
vt 0.47262650158348496 0.4539789195953483
vt 0.5053076833726907 0.5968051839943493
vt 0.23298706272436692 0.8188808054362287
vt 0.17881292817066097 0.6897651983490081
vt 0.308526134329339 0.6885659279046189
vt 0.2912960075313722 0.8030160519632231
vt 0.39635624999999997 0.9942555050989701
vt 0.4321390625 0.85740081759897
vt 0.5053609375 0.85740081759897
vt 0.52566875 0.9895430050989701
vt 0.5053609375 0.85740081759897
vt 0.4321390625 0.85740081759897
vt 0.46875 0.7812508175989701
vn 0.16113394263209938 0.9199465631219781 0.357399179534447
vn -0.013084137062055622 -0.006148850632056487 0.9998954930357704
vn 0.3342501233220252 -0.4212288934922772 0.8431151014816914
vn 0.2222080679908837 -0.7977869703337683 0.5604993527966167
vn 0.4067594421245961 0.9135353065111864 0
vn 0.9806560341951417 0.1957389654531194 0
vn 0.9219847043391393 -0.38722629684032345 0
vn 0.49490371214893036 -0.8689478210463554 0
vn 0.018459322832343462 0.3219926372366217 -0.946562198149692
vn 0.8581936250078637 0.17479740593391768 -0.4826484941182718
vn 0.04285284282866529 -0.006736146447585267 -0.9990586860603028
vn 0.03343306413787136 -0.625573286117473 -0.7794487115381868
vn 0 0.3154618453459446 -0.9489382614959371
vn -0.4746290352108544 0.6155844613114598 -0.6291129071372591
vn 0 -0.7314382957179472 -0.6819076327166496
vn 0 -0.6362188392616546 -0.7715086445196535
vn -0.051299088530108054 0.35682368915911056 -0.9327621660267225
vn 0.05074634734690691 0.3890210457709029 -0.919830111584884
vn -0.08627794438413365 -0.402476480729006 -0.9113554733323561
vn -0.07042027609002688 -0.6646256177788133 -0.7438506388432662
vn -0.3712879822720243 0.9186310555870761 0.13513777388777434
vn -0.9495686187477446 0.313559305856963 -6.275652755414687e-16
vn -0.9187321577965323 -0.3948812761204662 -1.7909032927679028e-16
vn -0.4949037121489305 -0.8689478210463553 -9.379757893100229e-17
vn 0.07282975351974885 0.8434499538562956 0.5322480646672803
vn -0.8543353544311157 0.26727736321171636 0.44572851971087996
vn -0.36112796246419937 0.1995644642385625 0.9109119712352184
vn -0.2222080679908832 -0.7977869703337679 0.5604993527966171
vn -0.26382229593083206 0.8711509825959802 0.414118052844648
vn 0.07409849871789136 0.3475017112791489 0.9347470102363622
vn -8.655445551500115e-16 -0.4597516681093472 0.8880475233176843
vn -6.890944204178055e-16 -0.7503273476712328 0.6610664651429939
usemtl m_21c13535-9abb-8d00-2f6d-8094804c612c
f 3/1/1 6/2/1 2/3/1
f 3/4/2 4/5/2 7/6/2 6/7/2
f 4/8/3 5/9/3 8/10/3 7/11/3
f 8/12/4 5/13/4 1/14/4
f 6/15/5 9/16/5 2/17/5
f 6/18/6 7/19/6 10/20/6 9/21/6
f 7/22/7 8/23/7 11/24/7 10/25/7
f 11/26/8 8/27/8 1/28/8
f 9/29/9 12/30/9 2/31/9
f 9/32/10 10/33/10 13/34/10 12/35/10
f 10/36/11 11/37/11 14/38/11 13/39/11
f 14/40/12 11/41/12 1/42/12
f 12/43/13 15/44/13 2/45/13
f 12/46/14 13/47/14 16/48/14 15/49/14
f 13/50/15 14/51/15 17/52/15 16/53/15
f 17/54/16 14/55/16 1/56/16
f 15/57/17 18/58/17 2/59/17
f 15/60/18 16/61/18 19/62/18 18/63/18
f 16/64/19 17/65/19 20/66/19 19/67/19
f 20/68/20 17/69/20 1/70/20
f 18/71/21 21/72/21 2/73/21
f 18/74/22 19/75/22 22/76/22 21/77/22
f 19/78/23 20/79/23 23/80/23 22/81/23
f 23/82/24 20/83/24 1/84/24
f 21/85/25 24/86/25 2/87/25
f 21/88/26 22/89/26 25/90/26 24/91/26
f 22/92/27 23/93/27 26/94/27 25/95/27
f 26/96/28 23/97/28 1/98/28
f 24/99/29 3/100/29 2/101/29
f 24/102/30 25/103/30 4/104/30 3/105/30
f 25/106/31 26/107/31 5/108/31 4/109/31
f 5/110/32 26/111/32 1/112/32
o cuboid
v 0.0625 0.5 0.0625
v 0.0625 0.5 -0.0625
v 0.0625 0 0.0625
v 0.0625 0 -0.0625
v -0.0625 0.5 0.0625
v -0.0625 0.5 -0.0625
v -0.0625 0 0.0625
v -0.0625 0 -0.0625
vt 0.359375 1
vt 0.328125 1
vt 0.328125 0.875
vt 0.359375 0.875
vt 0.375 0.25
vt 0.375 0.375
vt 0.34375 0.375
vt 0.34375 0.25
vt 0 0.96875
vt 0.03125 0.96875
vt 0.03125 1
vt 0 1
vt 0.03125 0.71875
vt 0.03125 0.75
vt 0 0.75
vt 0 0.71875
vt 0.15625 0.234375
vt 0.15625 0.359375
vt 0.125 0.359375
vt 0.125 0.234375
vt 0.203125 0.359375
vt 0.171875 0.359375
vt 0.171875 0.234375
vt 0.203125 0.234375
vn 1 0 0
vn -1 0 0
vn 0 1 0
vn 0 -1 0
vn 0 0 1
vn 0 0 -1
usemtl m_21c13535-9abb-8d00-2f6d-8094804c612c
f 28/113/33 27/114/33 29/115/33 30/116/33
f 33/117/34 31/118/34 32/119/34 34/120/34
f 31/121/35 27/122/35 28/123/35 32/124/35
f 30/125/36 29/126/36 33/127/36 34/128/36
f 29/129/37 27/130/37 31/131/37 33/132/37
f 32/133/38 28/134/38 30/135/38 34/136/38