# Made in Blockbench 4.12.6
mtllib bench.mtl

o cuboid
v 0.625 0.5 1.1875
v 0.625 0.5 1
v 0.5625 0 1.0625
v 0.5625 0 0.9375
v -0.375 0.5 1.1875
v -0.375 0.5 0.9375
v -0.375 0 1.0625
v -0.375 0 0.9375
vt 0.20278025865266486 0.6098897996416986
vt 0.18003224134733511 0.6155328586460349
vt 0.18003224134733511 0.5506370393362241
vt 0.19519758621755495 0.546875
vt 0.4140625 0.6328125
vt 0.4296875 0.6953125
vt 0.3984375 0.6953125
vt 0.3984375 0.6328125
vt 0.3828125 0.8828125
vt 0.5078125 0.8828125
vt 0.5078125 0.90625
vt 0.3828125 0.9140625
vt 0.484375 0.5859375
vt 0.484375 0.6015625
vt 0.3671875 0.6015625
vt 0.3671875 0.5859375
vt 0.3828125 0.6328125
vt 0.390625 0.6953125
vt 0.265625 0.6953125
vt 0.265625 0.6328125
vt 0.2578125 0.6953125
vt 0.1328125 0.6953125
vt 0.141096875 0.6323859375
vt 0.2578125 0.63323515625
vn 0.9922778767136677 -0.12403473458920847 0
vn -1 0 0
vn 0 1 0
vn 0 -1 0
vn 0 -0.24253562503633297 0.9701425001453319
vn 0.06195596302443674 0.1161674306708189 -0.9912954083909878
usemtl m_c4742809-cc2a-95b1-918b-3a3c4062f09a
f 2/1/1 1/2/1 3/3/1 4/4/1
f 7/5/2 5/6/2 6/7/2 8/8/2
f 5/9/3 1/10/3 2/11/3 6/12/3
f 4/13/4 3/14/4 7/15/4 8/16/4
f 3/17/5 1/18/5 5/19/5 7/20/5
f 6/21/6 2/22/6 4/23/6 8/24/6
o cuboid
v 0.625 0.3125 1
v 0.625 0.3125 -1.0625
v 0.5 0.1875 1
v 0.5 0.1875 -1.0625
v -0.375 0.3125 1
v -0.375 0.3125 -1.0625
v -0.375 0.1875 1
v -0.375 0.1875 -1.0625
vt 0.5078125 0.8359375
vt 0.25 0.8359375
vt 0.25 0.8125
vt 0.5078125 0.8125
vt 0.4921875 0.609375
vt 0.4921875 0.625
vt 0.234375 0.625
vt 0.234375 0.609375
vt 0 0.7421875
vt 0.125 0.7421875
vt 0.125 1
vt 0 1
vt 0.2421875 0.7421875
vt 0.2421875 1
vt 0.1328125 1
vt 0.1328125 0.7421875
vt 0.109375 0.59375
vt 0.125 0.609375
vt 0 0.609375
vt 0 0.59375
vt 0.359375 0.6015625
vt 0.234375 0.6015625
vt 0.25 0.5859375
vt 0.359375 0.5859375
vn 0.7071067811865476 -0.7071067811865476 0
vn -1 0 0
vn 0 1 0
vn 0 -1 0
vn 0 0 1
vn 0 0 -1
usemtl m_c4742809-cc2a-95b1-918b-3a3c4062f09a
f 10/25/7 9/26/7 11/27/7 12/28/7
f 15/29/8 13/30/8 14/31/8 16/32/8
f 13/33/9 9/34/9 10/35/9 14/36/9
f 12/37/10 11/38/10 15/39/10 16/40/10
f 11/41/11 9/42/11 13/43/11 15/44/11
f 14/45/12 10/46/12 12/47/12 16/48/12
o cuboid
v 0.625 0.5 -1.0625
v 0.625 0.5 -1.3125
v 0.5625 0 -1
v 0.5625 0 -1.125
v -0.375 0.5 -1
v -0.375 0.5 -1.3125
v -0.375 0 -1
v -0.375 0 -1.125
vt 0.21601502924948984 0.703125
vt 0.2051168632847865 0.734375
vt 0.14335997075051016 0.7197309527571287
vt 0.14880905373286185 0.703125
vt 0.171875 0.5546875
vt 0.171875 0.6171875
vt 0.1328125 0.6171875
vt 0.15625 0.5546875
vt 0 0.6171875
vt 0.125 0.625
vt 0.125 0.65625
vt 0 0.65625
vt 0.1171875 0.5703125
vt 0.1171875 0.5859375
vt 0 0.5859375
vt 0 0.5703125
vt 0.12074375000000001 0.6714484375
vt 0.129028125 0.734375
vt 0.0037843750000000065 0.734375
vt 0.0037843750000000065 0.67229765625
vt 0.375 0.9140625
vt 0.25 0.9140625
vt 0.2578125 0.84375
vt 0.375 0.84375
vn 0.9922778767136677 -0.12403473458920847 0
vn -1 0 0
vn 0 1 0
vn 0 -1 0
vn 0.06195596302443674 0.1161674306708189 0.9912954083909878
vn 0 -0.3511234415883917 -0.9363291775690445
usemtl m_c4742809-cc2a-95b1-918b-3a3c4062f09a
f 18/49/13 17/50/13 19/51/13 20/52/13
f 23/53/14 21/54/14 22/55/14 24/56/14
f 21/57/15 17/58/15 18/59/15 22/60/15
f 20/61/16 19/62/16 23/63/16 24/64/16
f 19/65/17 17/66/17 21/67/17 23/68/17
f 22/69/18 18/70/18 20/71/18 24/72/18
o cuboid
v -0.375 0.6875 0.90625
v -0.375 0.6875 -0.96875
v -0.375 0 1.09375
v -0.375 0 -1.15625
v -0.5 0.625 0.90625
v -0.5 0.625 -0.96875
v -0.5 0 1.09375
v -0.5 0 -1.15625
vt 0.5 0.7890625
vt 0.265625 0.7890625
vt 0.2421875 0.703125
vt 0.5234375 0.703125
vt 0.53125 0.921875
vt 0.5078125 1
vt 0.2734375 1
vt 0.25 0.921875
vt 0.6171875 0.859375
vt 0.6171875 0.875
vt 0.3828125 0.875
vt 0.3828125 0.859375
vt 0.2265625 0.34375
vt 0.2265625 0.625
vt 0.2109375 0.625
vt 0.2109375 0.34375
vt 0.3515625 0.4921875
vt 0.3515625 0.578125
vt 0.3359375 0.570587490647519
vt 0.33620638524954377 0.4921875
vt 0.32058827140376484 0.5623650979626197
vt 0.328125 0.578125
vt 0.23904905601734971 0.578125
vt 0.23904905601734971 0.5626339554408258
vn 1 0 0
vn -1 0 0
vn -0.447213595499958 0.894427190999916 0
vn 0 -1 0
vn -0.13043478260869565 0.2608695652173913 0.9565217391304348
vn -0.13043478260869565 0.2608695652173913 -0.9565217391304348
usemtl m_c4742809-cc2a-95b1-918b-3a3c4062f09a
f 26/73/19 25/74/19 27/75/19 28/76/19
f 31/77/20 29/78/20 30/79/20 32/80/20
f 29/81/21 25/82/21 26/83/21 30/84/21
f 28/85/22 27/86/22 31/87/22 32/88/22
f 27/89/23 25/90/23 29/91/23 31/92/23
f 30/93/24 26/94/24 28/95/24 32/96/24